PathFileType	4	(X/Y/Z)	D:\luciana\static.trc
DataRate	CameraRate	NumFrames	NumMarkers	Units	OrigDataRate	OrigDataStartFrame	OrigNumFrames
250.00	250.00	16	21	mm	250.00	346	922
Frame#	Time	pelvisR			PelvisL			Trunk1			Trunk2			Trunk3			C7			shoulder			upperArm1			upperArm2			upperArm3			elbow			forearm1			forearm2			forearm3			wrist1			wrist2			wrist3			wristOut			wristIn			elbowInt			hand			
		X1	Y1	Z1	X2	Y2	Z2	X3	Y3	Z3	X4	Y4	Z4	X5	Y5	Z5	X6	Y6	Z6	X7	Y7	Z7	X8	Y8	Z8	X9	Y9	Z9	X10	Y10	Z10	X11	Y11	Z11	X12	Y12	Z12	X13	Y13	Z13	X14	Y14	Z14	X15	Y15	Z15	X16	Y16	Z16	X17	Y17	Z17	X18	Y18	Z18	X19	Y19	Z19	X20	Y20	Z20	X21	Y21	Z21	

345	1.380000	1409.888983	637.604117	656.320572	1744.327307	653.372109	651.427507	1516.622066	871.672750	562.930882	1580.128431	818.654954	562.268257	1491.729140	778.900385	564.269781	1581.538200	1131.889701	743.783832	1752.160072	1067.328215	677.481890	1861.915231	931.238651	774.024606	1903.423548	942.027330	710.879207	1851.852417	916.390300	651.916265	1916.147470	797.869027	702.427030	1921.820164	701.395631	717.934966	1935.872793	731.601954	642.994285	1872.074366	766.231537	626.392841	1836.272240	673.876405	544.104457	1869.000196	614.145994	584.742427	1775.056005	693.537235	580.456853	1822.934985	603.346348	562.811494	1767.588139	646.115661	563.010573	1857.832670	762.769341	766.433954	1791.631460	610.553384	502.754748	
346	1.384000	1409.899235	637.598693	656.305909	1744.320154	653.384447	651.446700	1516.602039	871.672690	562.949121	1580.123067	818.661809	562.265754	1491.714001	778.912544	564.268291	1581.541896	1131.902337	743.785322	1752.144337	1067.337513	677.478075	1861.913085	931.245029	774.019659	1903.418779	942.041039	710.874915	1851.842642	916.403174	651.926458	1916.147947	797.880530	702.418864	1921.824932	701.416612	717.923105	1935.874939	731.622815	642.984390	1872.068882	766.238332	626.387715	1836.274505	673.890054	544.097960	1868.819475	614.078522	585.015535	1775.059104	693.542957	580.449224	1822.944999	603.356302	562.795162	1767.572999	646.130145	562.981486	1857.830048	762.762785	766.431212	1791.639447	610.573649	502.743185	
347	1.388000	1409.895658	637.594283	656.300783	1744.326115	653.370976	651.440859	1516.622782	871.670425	562.960327	1580.113292	818.680942	562.268615	1491.705656	778.919101	564.252853	1581.554413	1131.908894	743.801236	1752.138138	1067.345381	677.480280	1861.912847	931.253970	774.020612	1903.410196	942.050040	710.871398	1851.838589	916.405261	651.924729	1916.144252	797.888696	702.414036	1921.833515	701.428652	717.906177	1935.885906	731.628180	642.972112	1872.071505	766.242266	626.378238	1836.279631	673.905313	544.089615	1868.786335	614.052892	585.091889	1775.058746	693.544865	580.448329	1822.929263	603.359759	562.799096	1767.569304	646.150708	562.943995	1857.836246	762.769282	766.428053	1791.643739	610.585988	502.748907	
348	1.392000	1409.896493	637.617648	656.264186	1744.347095	653.341413	651.411116	1516.633749	871.693015	562.969208	1580.110669	818.695664	562.264800	1491.689205	778.910220	564.268470	1581.560731	1131.919026	743.802965	1752.123117	1067.342997	677.482307	1861.908913	931.261182	774.007559	1903.405786	942.062795	710.864067	1851.831317	916.408420	651.916981	1916.142464	797.882497	702.397227	1921.834707	701.424062	717.894197	1935.882092	731.635094	642.959416	1872.077823	766.246557	626.363397	1836.283803	673.913240	544.082642	1868.788481	614.057958	585.116029	1775.056839	693.538964	580.446362	1822.942972	603.363097	562.811792	1767.582893	646.171093	562.980950	1857.833028	762.773752	766.422093	1791.667819	610.582113	502.751291	
349	1.396000	1409.891486	637.635410	656.269729	1744.347692	653.354943	651.417553	1516.630530	871.699512	562.968671	1580.117941	818.705022	562.254369	1491.694689	778.903604	564.259052	1581.556916	1131.921053	743.822217	1752.110004	1067.348242	677.482963	1861.904740	931.267381	773.995161	1903.400421	942.070484	710.851312	1851.830244	916.427612	651.895761	1916.143894	797.889948	702.377439	1921.837807	701.428473	717.889488	1935.868621	731.647193	642.971933	1872.073650	766.249537	626.356006	1836.284161	673.922837	544.073582	1868.885875	614.116311	584.963500	1775.060892	693.536997	580.440879	1822.961211	603.371501	562.807083	1767.597914	646.173239	562.958419	1857.832074	762.780547	766.415715	1791.680098	610.585690	502.737820	
350	1.400000	1409.904838	637.620807	656.282485	1744.339585	653.360128	651.429653	1516.624928	871.700644	562.942982	1580.107331	818.709373	562.250793	1491.688967	778.906226	564.262986	1581.544995	1131.911874	743.827224	1752.095461	1067.355871	677.460968	1861.899734	931.267738	773.994207	1903.390646	942.076445	710.840762	1851.832390	916.435599	651.891828	1916.146994	797.901034	702.373087	1921.829700	701.435804	717.873693	1935.876608	731.659293	642.962694	1872.077346	766.253650	626.347184	1836.286783	673.923969	544.066012	1869.108915	614.223361	584.581852	1775.065422	693.541765	580.439150	1822.972298	603.380561	562.776685	1767.576694	646.134079	562.914968	1857.835412	762.794852	766.409874	1791.679263	610.584676	502.745152	
351	1.404000	1409.905434	637.622118	656.283379	1744.340420	653.363526	651.413739	1516.584277	871.717632	562.946439	1580.102563	818.718374	562.242031	1491.679668	778.922558	564.254880	1581.537366	1131.912708	743.822277	1752.084851	1067.355394	677.454352	1861.892581	931.274891	773.997545	1903.378963	942.079902	710.826159	1851.831198	916.438282	651.902437	1916.140079	797.908068	702.373505	1921.834350	701.443434	717.862844	1935.871124	731.657863	642.936409	1872.075200	766.255975	626.335502	1836.291194	673.923016	544.063866	1869.179249	614.250958	584.477246	1775.057554	693.537831	580.435634	1822.944283	603.373766	562.788665	1767.580748	646.123946	562.902689	1857.838511	762.801528	766.396344	1791.649580	610.581517	502.764046	
352	1.408000	1409.894705	637.615681	656.313777	1744.334698	653.350830	651.384294	1516.553998	871.716499	562.961578	1580.087066	818.715930	562.235653	1491.666555	778.932691	564.257920	1581.533670	1131.908536	743.834019	1752.069712	1067.350507	677.462578	1861.886382	931.280375	773.985386	1903.373361	942.082167	710.819006	1851.820350	916.437089	651.901782	1916.148067	797.913313	702.359557	1921.841502	701.440573	717.855096	1935.878038	731.669426	642.916262	1872.058153	766.252458	626.334429	1836.279869	673.917532	544.053793	1869.099617	614.220142	584.619701	1775.050879	693.532825	580.434918	1822.927475	603.375614	562.807918	1767.585278	646.146357	562.926531	1857.855201	762.825489	766.408324	1791.653872	610.581040	502.758384	
353	1.412000	1409.877181	637.627840	656.324804	1744.333982	653.358638	651.395202	1516.542435	871.704578	562.982857	1580.077052	818.706989	562.243104	1491.659641	778.911710	564.285338	1581.521869	1131.899834	743.832588	1752.060533	1067.345619	677.462101	1861.885309	931.278050	773.979425	1903.369784	942.088306	710.817516	1851.810098	916.440845	651.891112	1916.145325	797.916651	702.344000	1921.846867	701.448977	717.845917	1935.899734	731.674612	642.903209	1872.061253	766.261518	626.327693	1836.268663	673.910439	544.054925	1868.865490	614.127636	584.970176	1775.047541	693.531334	580.417931	1822.943687	603.394985	562.791228	1767.575026	646.144867	562.939882	1857.848406	762.815714	766.385972	1791.676044	610.572457	502.742171	
354	1.416000	1409.871340	637.607336	656.319678	1744.330764	653.382063	651.393294	1516.559839	871.697545	562.974691	1580.069780	818.701625	562.241375	1491.656780	778.909087	564.286351	1581.503868	1131.894946	743.820548	1752.057910	1067.355871	677.470326	1861.878872	931.285024	773.979008	1903.368473	942.098975	710.816026	1851.794958	916.447520	651.875854	1916.141510	797.925234	702.340722	1921.850324	701.466441	717.852831	1935.898304	731.670022	642.910242	1872.060776	766.264081	626.317620	1836.272240	673.909545	544.056952	1868.807793	614.086807	585.044384	1775.052190	693.534374	580.410004	1822.947741	603.389263	562.782586	1767.559767	646.144271	562.939882	1857.847691	762.818694	766.390562	1791.665077	610.559702	502.737999	
355	1.420000	1409.890413	637.584746	656.309128	1744.333267	653.380573	651.392639	1516.550541	871.706009	562.952280	1580.050945	818.697214	562.237263	1491.650820	778.921902	564.285338	1581.510067	1131.893277	743.829370	1752.047300	1067.359209	677.458584	1861.865997	931.287766	773.968816	1903.360128	942.107618	710.811853	1851.792216	916.456878	651.855528	1916.140437	797.947168	702.341855	1921.851039	701.469600	717.850626	1935.873508	731.673598	642.917514	1872.051954	766.265392	626.305282	1836.270690	673.909843	544.055641	1868.802667	614.087284	585.072219	1775.058985	693.538249	580.408573	1822.953224	603.387058	562.777698	1767.569423	646.166444	562.932789	1857.849002	762.816131	766.391337	1791.667819	610.582292	502.735496	
356	1.424000	1409.893870	637.595177	656.291187	1744.345784	653.344631	651.384890	1516.520143	871.677995	562.951326	1580.041647	818.695605	562.237740	1491.651416	778.930724	564.292073	1581.503391	1131.887317	743.825197	1752.036572	1067.361593	677.448928	1861.860752	931.288719	773.962080	1903.347969	942.110598	710.814357	1851.789117	916.465878	651.856661	1916.136026	797.955573	702.323079	1921.839595	701.473355	717.843115	1935.857773	731.680214	642.921150	1872.051954	766.270995	626.300573	1836.259961	673.906684	544.047892	1868.898153	614.123344	584.904432	1775.064826	693.544388	580.412388	1822.937012	603.374958	562.774062	1767.569304	646.159172	562.943399	1857.843876	762.799442	766.363919	1791.683912	610.601962	502.720654	
357	1.428000	1409.894824	637.607098	656.271219	1744.337678	653.360367	651.368797	1516.481996	871.683478	562.969327	1580.035210	818.694770	562.226713	1491.643310	778.925419	564.299583	1581.471562	1131.887555	743.818641	1752.041817	1067.364216	677.441776	1861.861467	931.296408	773.952007	1903.342962	942.109168	710.801959	1851.777196	916.456521	651.852489	1916.126013	797.950447	702.315032	1921.836257	701.487780	717.830658	1935.857296	731.683612	642.900050	1872.055650	766.274393	626.305521	1836.259365	673.907399	544.038534	1869.031310	614.179134	584.696293	1775.058985	693.543732	580.413461	1822.949886	603.382051	562.765062	1767.572045	646.134257	562.921464	1857.846498	762.809515	766.377628	1791.686535	610.587716	502.735972	
358	1.432000	1409.884691	637.604594	656.286538	1744.329333	653.353572	651.348054	1516.468287	871.698201	562.975109	1580.024242	818.697929	562.222421	1491.632581	778.917074	564.278841	1581.462860	1131.888509	743.814588	1752.025723	1067.350388	677.428722	1861.847043	931.294501	773.940682	1903.333783	942.114592	710.780621	1851.775646	916.452467	651.846170	1916.133523	797.946393	702.321649	1921.829700	701.485515	717.816114	1935.845017	731.670380	642.891288	1872.041821	766.268969	626.302242	1836.253524	673.905253	544.039786	1868.859768	614.108145	584.967196	1775.055647	693.538189	580.405653	1822.947264	603.386283	562.763453	1767.567277	646.129370	562.927961	1857.844710	762.826025	766.385019	1791.655302	610.568881	502.741754	
359	1.436000	1409.868002	637.612700	656.292498	1744.332433	653.348327	651.348472	1516.473532	871.692181	562.964737	1580.014110	818.703473	562.217534	1491.613150	778.917670	564.269006	1581.445813	1131.886840	743.811250	1752.012849	1067.356586	677.429438	1861.832976	931.294739	773.930967	1903.317809	942.116559	710.771859	1851.770401	916.464329	651.843429	1916.126132	797.950149	702.305734	1921.821952	701.482654	717.819214	1935.848951	731.679618	642.886877	1872.040510	766.278505	626.289845	1836.247087	673.903465	544.032335	1868.796587	614.076614	585.032880	1775.046110	693.545103	580.399334	1822.950482	603.379190	562.795043	1767.564297	646.123886	562.920570	1857.846022	762.824893	766.370535	1791.661143	610.578299	502.733529	
360	1.440000	1409.864426	637.620449	656.276584	1744.331479	653.350949	651.366770	1516.494274	871.691167	562.975883	1580.005407	818.707407	562.211037	1491.611242	778.923869	564.276218	1581.461310	1131.903887	743.811965	1751.999497	1067.368746	677.416682	1861.829519	931.302369	773.928046	1903.315067	942.123830	710.766017	1851.759911	916.466653	651.843905	1916.107178	797.956705	702.307165	1921.815872	701.488376	717.821538	1935.836077	731.690586	642.874360	1872.033238	766.286910	626.293540	1836.250067	673.906088	544.035196	1868.789196	614.076793	585.041940	1775.041938	693.545461	580.402255	1822.930336	603.380620	562.786758	1767.575979	646.133661	562.947452	1857.832551	762.825608	766.348898	1791.676044	610.584974	502.720356	
